<?xml version="1.0" encoding="UTF-8"?>
<svg id="_Слой_2" data-name="Слой 2" xmlns="http://www.w3.org/2000/svg" viewBox="0 0 314.05 90">
  <defs>
    <style>
      .cls-1 {
        fill: #fff;
        stroke-width: 0px;
      }
    </style>
  </defs>
  <g id="_Слой_1-2" data-name="Слой 1">
    <g id="_856e1962-49e8-48a0-b578-45c24fa59c47" data-name="856e1962-49e8-48a0-b578-45c24fa59c47">
      <path class="cls-1" d="M83.83,17.14v56.76h10.08v-5.68h1.1c2.14,3.36,5.68,6.78,12.8,6.78,10.08,0,18.53-8.92,18.53-21.25s-8.46-21.2-18.53-21.2c-7.12,0-10.66,3.36-12.8,6.78h-.98v-22.18h-10.19ZM105.09,41.58c6.14,0,11,4.4,11,12.16s-4.86,12.16-11,12.16-11.06-4.52-11.06-12.16,4.75-12.16,11.06-12.16ZM143.66,33.65h-10.02v40.25h10.19v-22.59c0-5.68,3.71-8.4,8.92-8.4h6.02v-9.44h-4.05c-5.15,0-8.51,1.56-10.08,6.02h-.98v-5.85ZM162.42,42.92l8.22,5.33c2.55-4.23,5.85-6.95,11.24-6.95s8.4,3.01,8.4,6.78v.98l-16.1,1.8c-7.47.81-12.57,5.21-12.57,11.58,0,7.7,5.97,12.57,15.06,12.57s11.7-4.23,12.63-5.97h1.16v4.86h10.08v-25.71c0-9.44-7.18-15.64-18.13-15.64-9.79,0-15.23,4.34-19.98,10.37ZM172.27,61.85c0-2.32,1.91-3.71,5.68-4.17l12.34-1.51v.69c0,5.5-3.94,9.73-11.12,9.73-4.52,0-6.89-1.97-6.89-4.75ZM207.66,22.01c0,4.11,3.13,6.95,7.18,6.95s7.24-2.84,7.24-6.95-3.19-7.01-7.24-7.01-7.18,2.84-7.18,7.01ZM219.99,33.65h-10.25v40.25h10.25v-40.25ZM229.72,33.65v40.25h10.19v-20.79c0-7.12,3.47-11.18,10.08-11.18,5.79,0,9.03,3.3,9.03,8.92v23.05h10.25v-24.03c0-10.42-6.72-16.85-15.64-16.85-7.41,0-11.12,3.42-12.74,7.12h-1.16v-6.49h-10.02ZM278.37,33.65v8.92h21.37l-22.18,23.05v8.28h36.49v-8.92h-22.88l22.18-23.05v-8.28h-34.98Z"/>
    </g>
    <g id="_3a103811-dc6f-4822-80e8-752cb7aad034" data-name="3a103811-dc6f-4822-80e8-752cb7aad034">
      <path class="cls-1" d="M64.13,32L32.14,0,.14,32l32,32s32-32,32-32ZM32.14,16.95l15.05,15.05-15.05,15.05-15.05-15.05,15.05-15.05ZM64.27,42.1l-15.93,15.93v31.97h15.93v-47.9ZM15.93,58.03L0,42.1v47.9h15.93v-31.97Z"/>
    </g>
  </g>
</svg>